<svg width="24.000000" height="23.000000" viewBox="0 0 24 23" fill="none" xmlns="http://www.w3.org/2000/svg" xmlns:xlink="http://www.w3.org/1999/xlink">
	<desc>
			Created with Pixso.
	</desc>
	<defs/>
	<path id="Vector" d="M9 22C8.44 22 8 21.55 8 21C8 20.44 8.44 20 9 20C9.55 20 10 20.44 10 21C10 21.55 9.55 22 9 22Z" stroke="#454545" stroke-opacity="1.000000" stroke-width="2.000000" stroke-linejoin="round"/>
	<path id="Vector" d="M19 22C18.44 22 18 21.55 18 21C18 20.44 18.44 20 19 20C19.55 20 20 20.44 20 21C20 21.55 19.55 22 19 22Z" stroke="#454545" stroke-opacity="1.000000" stroke-width="2.000000" stroke-linejoin="round"/>
	<path id="Vector" d="M1 1L5 1L7.68 15.28C7.77 15.77 8.02 16.21 8.38 16.52C8.75 16.84 9.21 17 9.68 16.99L19.39 16.99C19.86 17 20.32 16.84 20.69 16.52C21.05 16.21 21.3 15.77 21.39 15.28L23 6.33L6 6.33" stroke="#454545" stroke-opacity="1.000000" stroke-width="2.000000" stroke-linejoin="round" stroke-linecap="round"/>
</svg>
