<svg width="84.957764" height="26.407227" viewBox="0 0 84.9578 26.4072" fill="none" xmlns="http://www.w3.org/2000/svg" xmlns:xlink="http://www.w3.org/1999/xlink">
	<desc>
			Created with Pixso.
	</desc>
	<defs>
		<linearGradient x1="110.786995" y1="3.649963" x2="-1.428698" y2="25.364258" id="paint_linear_255_9737_0" gradientUnits="userSpaceOnUse">
			<stop stop-color="#260DC1"/>
			<stop offset="1.000000" stop-color="#59006F"/>
		</linearGradient>
	</defs>
	<path id="glance" d="M17.78 0L20.12 0L20.12 20.36L17.78 20.36L17.78 0ZM13.48 20.8C13.48 24.73 10.54 26.4 6.88 26.4C3.47 26.4 1.59 24.95 0.64 23.34L2.5 22.03C3.13 22.87 4.1 24.34 6.88 24.34C9.35 24.34 11.14 23.18 11.14 20.64L11.14 17.54L10.93 17.54C10.42 18.37 9.46 20.12 6.48 20.12C2.78 20.12 0 17.41 0 12.64C0 7.95 2.66 4.89 6.52 4.89C9.5 4.89 10.46 6.71 10.97 7.51L11.21 7.51L11.21 5.09L13.48 5.09L13.48 20.8ZM33.45 18.29C32.97 19.29 31.57 20.71 28.92 20.71C26.01 20.71 23.7 19.01 23.7 16.03C23.7 12.53 26.8 11.9 29.63 11.53C32.42 11.17 33.56 11.27 33.56 10.14L33.56 10.06C33.56 8.1 32.5 6.95 30.34 6.95C28.11 6.95 26.89 8.15 26.37 9.26L24.14 8.46C25.33 5.68 27.96 4.89 30.26 4.89C32.22 4.89 35.92 5.44 35.92 10.3L35.92 20.36L33.56 20.36L33.56 18.29L33.45 18.29ZM46.46 7C44.21 7 42.55 8.51 42.55 11.17L42.55 20.36L40.21 20.36L40.21 5.09L42.48 5.09L42.48 7.47L42.67 7.47C43.39 5.92 44.82 4.89 47.13 4.89C50.22 4.89 52.3 6.76 52.3 10.65L52.3 20.36L49.96 20.36L49.96 10.82C49.96 8.42 48.63 7 46.46 7ZM68.8 15.9C68.41 18.61 66.18 20.68 62.8 20.68C58.5 20.68 55.88 17.38 55.88 12.81C55.88 8.15 58.62 4.89 62.76 4.89C65.98 4.89 68.41 6.8 68.8 9.66L66.46 9.66C66.1 8.27 64.86 7 62.8 7C60.05 7 58.23 9.26 58.23 12.72C58.23 16.26 60.02 18.57 62.8 18.57C64.63 18.57 66.02 17.58 66.46 15.9L68.8 15.9ZM84.71 16.82C84 19.13 81.73 20.68 78.63 20.68C74.21 20.68 71.51 17.54 71.51 12.84C71.51 8.15 74.25 4.89 78.39 4.89C81.57 4.89 84.95 6.84 84.95 12.53L84.95 13.52L73.86 13.52C73.97 16.79 75.87 18.57 78.63 18.57C80.47 18.57 81.85 17.78 82.44 16.18L84.71 16.82ZM2.35 12.6C2.35 15.79 3.86 18.01 6.8 18.01C9.62 18.01 11.17 15.98 11.17 12.6C11.17 9.31 9.66 7 6.8 7C3.82 7 2.35 9.5 2.35 12.6ZM78.39 7C75.7 7 74.02 9.11 73.86 11.49L82.57 11.49C82.57 8.9 80.93 7 78.39 7ZM26.05 16.14C26.05 17.78 27.4 18.61 29.27 18.61C32.05 18.61 33.56 16.74 33.56 14.83L33.56 12.68C33.17 13.16 30.5 13.44 29.51 13.56C27.68 13.8 26.05 14.35 26.05 16.14Z" fill="url(#paint_linear_255_9737_0)" fill-opacity="1.000000" fill-rule="evenodd"/>
</svg>
