<svg width="22.000000" height="24.000000" viewBox="0 0 22 24" fill="none" xmlns="http://www.w3.org/2000/svg" xmlns:xlink="http://www.w3.org/1999/xlink">
	<desc>
			Created with Pixso.
	</desc>
	<defs/>
	<path id="Vector" d="M21 23L21 20.66C21 19.42 20.47 18.24 19.53 17.36C18.59 16.49 17.32 16 16 16L6 16C4.67 16 3.4 16.49 2.46 17.36C1.52 18.24 1 19.42 1 20.66L1 23" stroke="#454545" stroke-opacity="1.000000" stroke-width="2.000000" stroke-linejoin="round" stroke-linecap="round"/>
	<path id="Vector" d="M10.5 11C7.73 11 5.5 8.76 5.5 6C5.5 3.23 7.73 1 10.5 1C13.26 1 15.5 3.23 15.5 6C15.5 8.76 13.26 11 10.5 11Z" stroke="#454545" stroke-opacity="1.000000" stroke-width="2.000000" stroke-linejoin="round"/>
</svg>
